<svg width="26" height="24" viewBox="0 0 26 24" fill="none" xmlns="http://www.w3.org/2000/svg">
<path d="M7.08896 0.620972C3.23025 0.620972 0.101074 3.5121 0.101074 7.07727V17.4073C0.101074 20.9725 3.23025 23.8636 7.08896 23.8636H18.2696C22.1283 23.8636 25.2575 20.9725 25.2575 17.4073V7.07727C25.2575 3.5121 22.1283 0.620972 18.2696 0.620972H7.08896ZM21.0647 3.20349C21.8362 3.20349 22.4623 3.78198 22.4623 4.49475C22.4623 5.20753 21.8362 5.78601 21.0647 5.78601C20.2933 5.78601 19.6672 5.20753 19.6672 4.49475C19.6672 3.78198 20.2933 3.20349 21.0647 3.20349ZM12.6793 5.78601C16.538 5.78601 19.6672 8.67714 19.6672 12.2423C19.6672 15.8075 16.538 18.6986 12.6793 18.6986C8.82056 18.6986 5.69138 15.8075 5.69138 12.2423C5.69138 8.67714 8.82056 5.78601 12.6793 5.78601ZM12.6793 8.36853C11.5673 8.36853 10.5008 8.77666 9.71456 9.50313C8.92827 10.2296 8.48654 11.2149 8.48654 12.2423C8.48654 13.2697 8.92827 14.255 9.71456 14.9815C10.5008 15.708 11.5673 16.1161 12.6793 16.1161C13.7912 16.1161 14.8577 15.708 15.644 14.9815C16.4303 14.255 16.872 13.2697 16.872 12.2423C16.872 11.2149 16.4303 10.2296 15.644 9.50313C14.8577 8.77666 13.7912 8.36853 12.6793 8.36853Z" fill="#C95E20"/>
</svg>
