<svg width="26" height="24" viewBox="0 0 26 24" fill="none" xmlns="http://www.w3.org/2000/svg">
<path d="M22.5927 0.620972H3.0266C1.48228 0.620972 0.231445 1.77665 0.231445 3.20349V21.2811C0.231445 22.708 1.48228 23.8636 3.0266 23.8636H22.5927C24.137 23.8636 25.3878 22.708 25.3878 21.2811V3.20349C25.3878 1.77665 24.137 0.620972 22.5927 0.620972ZM6.85317 18.6986C5.87905 18.6986 5.08942 17.969 5.08942 17.069V11.2881C5.09082 10.3893 5.88045 9.65979 6.85317 9.65979C7.82728 9.65979 8.61691 10.3894 8.61691 11.2894V17.0703C8.61691 17.969 7.82728 18.6986 6.85317 18.6986ZM6.79167 8.0031C5.71414 8.0031 4.99439 7.3394 4.99439 6.45359C4.99439 5.56779 5.71274 4.90408 6.91047 4.90408C7.988 4.90408 8.70775 5.56779 8.70775 6.45359C8.70775 7.3394 7.9894 8.0031 6.79167 8.0031ZM19.4887 18.6986C18.5467 18.6986 17.7822 17.9923 17.7822 17.122V13.7582C17.7822 12.3921 16.8724 12.2423 16.5314 12.2423C16.1904 12.2423 15.0527 12.2875 15.0527 13.7582V17.122C15.0527 17.9923 14.2883 18.6986 13.3463 18.6986H13.2331C12.2911 18.6986 11.5267 17.9923 11.5267 17.122V11.2894C11.5267 10.3894 12.3163 9.65979 13.2904 9.65979C14.2645 9.65979 15.0541 10.3894 15.0541 11.2894C15.0541 11.2894 15.4483 9.65979 18.126 9.65979C19.8297 9.65979 21.1951 10.9213 21.1951 13.7582V17.122C21.1951 17.9923 20.4306 18.6986 19.4887 18.6986Z" fill="#C95E20"/>
</svg>
