<svg width="26" height="24" viewBox="0 0 26 24" fill="none" xmlns="http://www.w3.org/2000/svg">
<path d="M19.9282 0.620972H5.95237C2.86512 0.620972 0.362061 2.93362 0.362061 5.78601V18.6986C0.362061 21.551 2.86512 23.8636 5.95237 23.8636H19.9282C23.0154 23.8636 25.5185 21.551 25.5185 18.6986V5.78601C25.5185 2.93362 23.0154 0.620972 19.9282 0.620972ZM19.998 9.03224C19.998 9.14328 19.998 9.25304 19.998 9.47514C19.998 13.6808 16.5237 18.5514 10.1745 18.5514C8.25838 18.5514 6.46109 17.9975 4.90419 17.1129C5.14317 17.1129 5.50375 17.1129 5.74274 17.1129C7.29964 17.1129 8.85794 16.559 10.0557 15.7842C8.49876 15.7842 7.30103 14.7887 6.82167 13.571C7.06065 13.571 7.30103 13.6821 7.42123 13.6821C7.7804 13.6821 8.02079 13.6821 8.37997 13.571C6.82306 13.2392 5.62534 12.0215 5.62534 10.472C6.10471 10.6928 6.58408 10.8038 7.18224 10.9149C6.2235 10.1401 5.62534 9.25433 5.62534 8.14772C5.62534 7.59377 5.74553 7.04111 6.10471 6.59821C7.7818 8.47958 10.2974 9.80828 13.1723 9.91804C13.1723 9.69724 13.0521 9.47514 13.0521 9.14328C13.0521 7.37297 14.609 5.93321 16.5264 5.93321C17.4852 5.93321 18.4425 6.26507 19.0421 6.92877C19.8806 6.81773 20.599 6.48587 21.1985 6.15402C20.9596 6.92877 20.36 7.48273 19.6416 7.92434C20.36 7.81329 20.9596 7.70353 21.6779 7.37039C21.1958 8.03668 20.5976 8.58933 19.998 9.03224Z" fill="#C95E20"/>
</svg>
